<svg xmlns="http://www.w3.org/2000/svg" viewBox="0 0 300 340" fill="none">
  <!-- Blue check shirt body -->
  <path d="M90 60 L30 110 L60 130 L60 280 L240 280 L240 130 L270 110 L210 60 L180 80 C180 80 165 95 150 95 C135 95 120 80 120 80 Z" fill="#1d4ed8" opacity="0.92"/>
  <!-- Collar -->
  <path d="M120 60 L150 95 L180 60 L165 50 L150 75 L135 50 Z" fill="#1e3a8a"/>
  <!-- Sleeves -->
  <path d="M90 60 L30 110 L60 130 L80 120 L100 80 Z" fill="#1d4ed8" opacity="0.85"/>
  <path d="M210 60 L270 110 L240 130 L220 120 L200 80 Z" fill="#1d4ed8" opacity="0.85"/>
  <!-- Check pattern lines -->
  <line x1="90" y1="130" x2="90" y2="280" stroke="#3b82f6" stroke-width="1.5" opacity="0.4"/>
  <line x1="120" y1="130" x2="120" y2="280" stroke="#3b82f6" stroke-width="1.5" opacity="0.4"/>
  <line x1="150" y1="130" x2="150" y2="280" stroke="#3b82f6" stroke-width="1.5" opacity="0.4"/>
  <line x1="180" y1="130" x2="180" y2="280" stroke="#3b82f6" stroke-width="1.5" opacity="0.4"/>
  <line x1="210" y1="130" x2="210" y2="280" stroke="#3b82f6" stroke-width="1.5" opacity="0.4"/>
  <line x1="60" y1="160" x2="240" y2="160" stroke="#3b82f6" stroke-width="1.5" opacity="0.4"/>
  <line x1="60" y1="200" x2="240" y2="200" stroke="#3b82f6" stroke-width="1.5" opacity="0.4"/>
  <line x1="60" y1="240" x2="240" y2="240" stroke="#3b82f6" stroke-width="1.5" opacity="0.4"/>
  <!-- Buttons -->
  <circle cx="150" cy="130" r="4" fill="#93c5fd"/>
  <circle cx="150" cy="160" r="4" fill="#93c5fd"/>
  <circle cx="150" cy="190" r="4" fill="#93c5fd"/>
  <circle cx="150" cy="220" r="4" fill="#93c5fd"/>
</svg>
